<svg version="1.1" id="Capa_1" xmlns="http://www.w3.org/2000/svg" x="0" y="0" viewBox="0 0 368.4 100" style="enable-background:new 0 0 368.4 100" xml:space="preserve"><style>.st1{fill:#fff}.st3{fill:#ffcd00}</style><path class="st1" d="M94 46.4 90.4 41h10.9c-.7 3.2-1.4 6.5-2.1 9.7-.7 3.2-1.4 6.5-2.1 9.7-.1.6.3 1.2.9 1.2h9.9c.6 0 1 .5.9 1.2-.2 1.1-.5 2.1-.7 3.2H91.4c-2.3 0-3.8-1.9-3.3-4.2.6-2.8 1.2-5.5 1.7-8.3.6-2.8 1.2-5.5 1.8-8.3.9.4 1.6.8 2.4 1.2zM119.4 46.4l-3.6-5.4h10.9c-.7 3.2-1.4 6.5-2.1 9.7-.7 3.2-1.4 6.5-2.1 9.7-.1.6.3 1.2.9 1.2h9.9c.6 0 1 .5.9 1.2-.2 1.1-.5 2.1-.7 3.2h-16.7c-2.3 0-3.8-1.9-3.3-4.2.6-2.8 1.2-5.5 1.7-8.3.6-2.8 1.2-5.5 1.8-8.3.9.4 1.7.8 2.4 1.2zM154.9 65.9c.4-1.7.7-3.4 1.1-5.2.4-1.7.7-3.4 1.1-5.2h-7.7c-.4 1.7-.7 3.4-1.1 5.2-.4 1.7-.7 3.4-1.1 5.2h-8.7c.7-3.5 1.5-6.9 2.2-10.4.7-3.5 1.5-6.9 2.2-10.4.8.4 1.5.8 2.3 1.1l-3.6-5.4h23c2.3 0 3.8 1.9 3.3 4.2-.7 3.5-1.5 6.9-2.2 10.4-.7 3.5-1.5 6.9-2.2 10.4-2.8.1-5.7.1-8.6.1zm4.1-19.4c.1-.6-.3-1.2-.9-1.2h-6.5c-.4 2-.9 4-1.3 6h7.7c.4-1.6.7-3.2 1-4.8zM176.4 46.4l-3.6-5.4h10.8c.8 2.1 1.7 4.2 2.5 6.3.8 2.1 1.7 4.2 2.5 6.3.5-2.1.9-4.2 1.3-6.3.4-2.1.9-4.2 1.3-6.3h8.7c-.9 4.2-1.8 8.3-2.6 12.5-.9 4.2-1.8 8.3-2.6 12.5h-8.6c-.9-2.1-1.7-4.2-2.5-6.3-.8-2.1-1.7-4.2-2.5-6.3-.4 2.1-.9 4.2-1.3 6.3-.4 2.1-.9 4.2-1.3 6.3h-8.7c.7-3.5 1.5-6.9 2.2-10.4.7-3.4 1.5-6.9 2.2-10.4.7.4 1.4.8 2.2 1.2zM203.8 45.3c-.6 0-1-.5-.9-1.2.2-1.1.4-2.1.7-3.2h27c-.2 1.1-.4 2.1-.7 3.2-.1.6-.8 1.2-1.4 1.2h-8c-.7 3.4-1.5 6.9-2.2 10.3-.7 3.4-1.5 6.9-2.2 10.3h-8.7c.7-3.4 1.5-6.9 2.2-10.3.7-3.4 1.5-6.9 2.2-10.3h-8zM245.6 65.9c.4-1.7.7-3.4 1.1-5.2.4-1.7.7-3.4 1.1-5.2h-7.7c-.4 1.7-.7 3.4-1.1 5.2-.4 1.7-.7 3.4-1.1 5.2h-8.7c.7-3.5 1.5-6.9 2.2-10.4.7-3.5 1.5-6.9 2.2-10.4.8.4 1.5.8 2.3 1.1l-3.6-5.4h23c2.3 0 3.8 1.9 3.3 4.2-.7 3.5-1.5 6.9-2.2 10.4-.7 3.5-1.5 6.9-2.2 10.4-2.8.1-5.7.1-8.6.1zm4.1-19.4c.1-.6-.3-1.2-.9-1.2h-6.5c-.4 2-.9 4-1.3 6h7.7c.4-1.6.7-3.2 1-4.8z"/><path class="st3" d="m270.9 46.4-3.6-5.4h23c2.3 0 3.8 1.9 3.3 4.2-.4 1.7-.7 3.5-1.1 5.2-.1.4-.2.7-.4 1.1-.4.8-.9 1.5-1.6 2 .5.5.7 1.2.8 2 0 .3 0 .7-.1 1.1-.4 1.7-.7 3.5-1.1 5.2-.5 2.3-2.8 4.2-5.1 4.2h-16.6c-2.3 0-3.8-1.9-3.3-4.2.6-2.8 1.2-5.5 1.8-8.3.6-2.8 1.2-5.5 1.7-8.3.7.4 1.5.8 2.3 1.2zm4 15.2h5.3c.6 0 1.3-.5 1.4-1.2.3-1.3.5-2.5.8-3.8.1-.6-.3-1-.9-1H275c-.3 1.6-.7 3.2-1 4.8-.1.7.3 1.2.9 1.2zm8.9-11.4c.3-1.3.5-2.5.8-3.8.1-.6-.3-1.2-.9-1.2h-6.5c-.4 2-.9 4-1.3 6h6.5c.7.1 1.2-.4 1.4-1zM300.6 46.4 297 41h23c2.3 0 3.8 1.9 3.3 4.2-.6 2.8-1.2 5.5-1.8 8.3-.6 2.8-1.2 5.5-1.8 8.3-.5 2.3-2.8 4.2-5.1 4.2H298c-2.3 0-3.8-1.9-3.3-4.2.6-2.8 1.2-5.5 1.8-8.3.6-2.8 1.2-5.5 1.7-8.3l2.4 1.2zm4 15.2h5.3c.6 0 1.3-.5 1.4-1.2.5-2.3 1-4.7 1.5-7s1-4.7 1.5-7c.1-.6-.3-1.2-.9-1.2h-6.5c-.5 2.5-1.1 5-1.6 7.6-.5 2.5-1.1 5-1.6 7.6-.1.7.3 1.2.9 1.2zM327.5 45.3c-.6 0-1-.5-.9-1.2.2-1.1.4-2.1.7-3.2h27c-.2 1.1-.4 2.1-.7 3.2-.1.6-.8 1.2-1.4 1.2h-8c-.7 3.4-1.5 6.9-2.2 10.3-.7 3.4-1.5 6.9-2.2 10.3h-8.7c.7-3.4 1.5-6.9 2.2-10.3.7-3.4 1.5-6.9 2.2-10.3h-8zM74.1 44.7c-.7-.5-1.4-.7-1.8-.7-.1 0-.2.1-.2.2.2 1.4.1 3.1 0 4.3-.1 1-.1 1.9-.1 2.9 0 1.2-.2 2.9-.5 4.3 0 .1.1.2.2.2.3 0 1.1 0 1.8-.5 1-.6 1.6-1.7 1.6-2.9l.2-4.9c.2-1-.3-2.2-1.2-2.9zM17.9 56c.1 0 .2-.1.2-.2-.3-1.4-.4-3.1-.5-4.3 0-1-.1-1.9-.1-2.9-.1-1.2-.1-2.9 0-4.3 0-.1-.1-.2-.2-.2-.3 0-1.1.1-1.8.7-.9.7-1.4 1.9-1.3 3l.2 4.9c.1 1.2.6 2.3 1.6 2.9.9.4 1.6.4 1.9.4z"/><path class="st1" d="M37.4 51.7c1.9 0 3.4-2 3.4-4.5s-1.5-4.5-3.4-4.5-3.4 2-3.4 4.5c0 2.4 1.5 4.5 3.4 4.5z"/><path class="st3" d="M34.2 76.2H27c-.1.4-.1.9-.1 1.4 0 .7.1 1.4.2 2h8.2c-.7-.9-1-1.9-1-3.1v-.3z"/><path class="st3" d="M28.2 84.6c-1 0-2.1-1.5-2.6-3.9-.1-.3-.1-.7-.2-1 0-.2-.1-.4-.1-.7V75.3c0-.1 0-.2.1-.3.5-2.7 1.7-4.6 2.7-4.6 1.1 0 2.3 1.8 2.8 4.6h1.3c-.8-4.7-4-8.2-7.9-8.2-4.5 0-8.1 4.8-8.1 10.6 0 5.9 3.6 10.6 8.1 10.6 3.6 0 6.7-3.1 7.7-7.5h-1.3c-.4 2.6-1.5 4.1-2.5 4.1zM62.8 77.6c0-.5 0-1-.1-1.4h-7.2v.3c0 1.1-.4 2.2-1 3.1h8.2c0-.6.1-1.3.1-2z"/><path class="st3" d="M65.3 66.9c-3.8 0-7 3.5-7.9 8.2h1.3c.5-2.7 1.7-4.6 2.8-4.6 1.1 0 2.3 1.8 2.7 4.6 0 .1 0 .2.1.3V79.1c0 .2 0 .5-.1.7-.1.4-.1.7-.2 1-.5 2.4-1.6 3.9-2.6 3.9s-2.1-1.5-2.6-3.9h-1.3c1 4.3 4.1 7.5 7.7 7.5 4.5 0 8.1-4.8 8.1-10.6.1-6-3.6-10.8-8-10.8zM36 69.9v6.6c0 1 .4 2 1.2 2.7l5.3 4.5c1.3 1.1 3.3 1.1 4.6 0l5.3-4.5c.8-.7 1.2-1.7 1.2-2.7v-6.7c-3.3 1-6.6 1.7-8.9 1.8-2.2-.1-5.4-.7-8.7-1.7z"/><path class="st3" d="M23.5 62c4.1 4 15.5 7.7 21.3 7.9C50.6 69.7 62 66 66.1 62c2.6-2.5 4-8.6 4.2-14.2.1-2.5-.2-4.9-.7-6.8-1.4-5.6-7.8-15.4-22.7-15.9l2.5-4.4c.2-.4.2-.9 0-1.4-.2-.4-.7-.7-1.1-.8l-7.1-.6c.9-1.5 2.1-3.2 2.5-3.6.5-.4.7-1.2.3-1.8-.4-.7-1.3-.9-2-.5-.2.1-.6.4-2.7 3.4-2.2 3.2-1.9 3.5-1.8 4.1.1.6.7 1.1 1.3 1.1l7 .6-2.1 3.8C28 25.2 21.5 35.2 20 40.9c-.5 2-.7 4.4-.7 6.8.2 5.7 1.7 11.8 4.2 14.3zm.9-16.9c.1-4 3.2-7.2 7.2-7.4l12-.7h.9l12 .7c4 .2 7.1 3.5 7.2 7.4l.2 8.1c0 1.9-1.5 3.6-3.5 3.6H52c-.6 0-1.2-.2-1.7-.6-.9-.7-2-1-3.2-1h-6.8c-.6 0-1.2.2-1.8.6-.5.3-1 .6-1.5.8-.5.2-1.1.3-1.7.3h-7.7c-1.9 0-3.5-1.6-3.5-3.6l.3-8.2z"/><path class="st1" d="M52.2 51.7c1.9 0 3.4-2 3.4-4.5s-1.5-4.5-3.4-4.5-3.4 2-3.4 4.5c0 2.4 1.6 4.5 3.4 4.5z"/></svg>