<svg version="1.1" id="Capa_1" xmlns="http://www.w3.org/2000/svg" x="0" y="0" viewBox="0 0 410 100" style="enable-background:new 0 0 410 100" xml:space="preserve"><style>.st0{fill:#00263a}.st3{fill:#ffcd00}</style><path class="st0" d="M98.9 45.7c-1.4-2.1-2.8-4.2-4.2-6.4h12.8c-.8 3.8-1.6 7.6-2.4 11.5-.8 3.8-1.6 7.6-2.4 11.5-.2.7.3 1.4 1.1 1.4h11.7c.7 0 1.2.6 1 1.4-.3 1.3-.5 2.5-.8 3.7H96.1c-2.7 0-4.5-2.2-3.9-5 .7-3.2 1.4-6.5 2.1-9.7.7-3.2 1.4-6.5 2.1-9.7.7.4 1.6.9 2.5 1.3zM128.8 45.7c-1.4-2.1-2.8-4.2-4.2-6.4h12.8c-.8 3.8-1.6 7.6-2.4 11.5-.8 3.8-1.6 7.6-2.4 11.5-.2.7.3 1.4 1.1 1.4h11.7c.7 0 1.2.6 1 1.4-.3 1.3-.5 2.5-.8 3.7H126c-2.7 0-4.5-2.2-3.9-5 .7-3.2 1.4-6.5 2.1-9.7.7-3.2 1.4-6.5 2.1-9.7.7.4 1.6.9 2.5 1.3zM170.5 68.7c.4-2 .9-4 1.3-6.1.4-2 .9-4 1.3-6.1h-9c-.4 2-.9 4.1-1.3 6.1s-.9 4-1.3 6.1h-10.2c.9-4.1 1.7-8.1 2.6-12.2.9-4.1 1.7-8.1 2.6-12.2.9.4 1.8.9 2.7 1.3-1.4-2.1-2.8-4.2-4.2-6.4h27c2.7 0 4.5 2.2 3.9 5-.9 4.1-1.7 8.1-2.6 12.2-.9 4.1-1.7 8.1-2.6 12.2-3.4.1-6.8.1-10.2.1zm4.9-22.9c.2-.7-.3-1.4-1.1-1.4h-7.6c-.5 2.3-1 4.7-1.5 7h9c.4-1.8.8-3.7 1.2-5.6zM195.8 45.7c-1.4-2.1-2.8-4.2-4.2-6.4h12.7c1 2.5 2 4.9 2.9 7.4 1 2.5 2 4.9 3 7.4.5-2.5 1.1-4.9 1.6-7.4s1.1-4.9 1.6-7.4h10.2c-1 4.9-2.1 9.8-3.1 14.7-1 4.9-2.1 9.8-3.1 14.7h-10.1c-1-2.5-2-4.9-3-7.4s-1.9-4.9-2.9-7.4c-.5 2.5-1.1 4.9-1.6 7.4s-1 4.9-1.6 7.4H188c.9-4.1 1.7-8.1 2.6-12.2.9-4.1 1.7-8.1 2.6-12.2.8.5 1.7 1 2.6 1.4zM228 44.5c-.7 0-1.2-.6-1.1-1.4.3-1.2.5-2.5.8-3.7h31.7c-.3 1.2-.5 2.5-.8 3.7-.2.7-.9 1.4-1.6 1.4h-9.4c-.9 4-1.7 8.1-2.6 12.1-.9 4-1.7 8.1-2.6 12.1h-10.2c.9-4 1.7-8.1 2.6-12.1.9-4 1.7-8.1 2.6-12.1H228zM277.2 68.7c.4-2 .9-4 1.3-6.1.4-2 .9-4 1.3-6.1h-9c-.4 2-.9 4.1-1.3 6.1s-.9 4-1.3 6.1H258c.9-4.1 1.7-8.1 2.6-12.2.9-4.1 1.7-8.1 2.6-12.2.9.4 1.8.9 2.7 1.3-1.4-2.1-2.8-4.2-4.2-6.4h27c2.7 0 4.5 2.2 3.9 5-.9 4.1-1.7 8.1-2.6 12.2-.9 4.1-1.7 8.1-2.6 12.2-3.4.1-6.8.1-10.2.1zm4.9-22.9c.2-.7-.3-1.4-1.1-1.4h-7.6c-.5 2.3-1 4.7-1.5 7h9c.4-1.8.8-3.7 1.2-5.6z"/><path class="st3" d="M306.9 45.7c-1.4-2.1-2.8-4.2-4.3-6.4h27.1c2.7 0 4.5 2.2 3.9 5-.4 2-.9 4.1-1.3 6.1-.1.4-.2.8-.4 1.2-.4.9-1.1 1.7-1.9 2.4.5.6.9 1.5.9 2.4 0 .4 0 .8-.1 1.2-.4 2-.9 4.1-1.3 6.1-.6 2.7-3.3 5-6 5H304c-2.7 0-4.5-2.2-3.9-5 .7-3.2 1.4-6.5 2.1-9.7.7-3.2 1.4-6.5 2.1-9.7.8.5 1.7 1 2.6 1.4zm4.8 17.9h6.3c.8 0 1.5-.6 1.7-1.4.3-1.5.6-3 .9-4.4.1-.7-.4-1.2-1.1-1.2h-7.6l-1.2 5.7c-.2.7.3 1.3 1 1.3zm10.5-13.3c.3-1.5.6-3 .9-4.4.2-.7-.3-1.4-1-1.4h-7.6c-.5 2.3-1 4.7-1.5 7h7.6c.7 0 1.4-.5 1.6-1.2zM341.9 45.7c-1.4-2.1-2.8-4.2-4.2-6.4h27.1c2.7 0 4.5 2.2 3.9 5-.7 3.2-1.4 6.5-2.1 9.7-.7 3.2-1.4 6.5-2.1 9.7-.6 2.7-3.3 5-6 5H339c-2.7 0-4.5-2.2-3.9-5 .7-3.2 1.4-6.5 2.1-9.7.7-3.2 1.4-6.5 2.1-9.7.8.5 1.7 1 2.6 1.4zm4.7 17.9h6.3c.8 0 1.5-.6 1.6-1.4.6-2.7 1.2-5.5 1.8-8.2.6-2.7 1.2-5.5 1.8-8.2.2-.7-.3-1.4-1.1-1.4h-7.6c-.6 3-1.3 5.9-1.9 8.9-.6 3-1.3 5.9-1.9 8.9-.2.8.3 1.4 1 1.4zM373.6 44.5c-.7 0-1.2-.6-1.1-1.4.3-1.2.5-2.5.8-3.7H405c-.3 1.2-.5 2.5-.8 3.7-.2.7-.9 1.4-1.6 1.4h-9.4c-.9 4-1.7 8.1-2.6 12.1-.9 4-1.7 8.1-2.6 12.1h-10.2c.9-4 1.7-8.1 2.6-12.1s1.7-8.1 2.6-12.1h-9.4zM75.5 43.8c-.8-.6-1.7-.8-2.1-.8-.1 0-.2.1-.2.3.2 1.6.1 3.7 0 5.1-.1 1.1-.1 2.3-.2 3.4-.1 1.4-.2 3.5-.6 5.1 0 .1.1.3.2.3.4 0 1.2 0 2.2-.6 1.2-.7 1.9-2 1.9-3.4l.3-5.7c.1-1.5-.4-2.9-1.5-3.7zM9.4 57.1c.1 0 .2-.1.2-.3-.4-1.6-.5-3.6-.6-5.1 0-1.1-.1-2.3-.2-3.4-.1-1.4-.1-3.5 0-5.1 0-.1-.1-.3-.2-.3-.4 0-1.2.2-2.1.8-1 .9-1.5 2.3-1.5 3.7l.3 5.7c.1 1.4.8 2.7 1.9 3.4 1 .6 1.8.6 2.2.6z"/><path class="st0" d="M32.3 51.9c2.2 0 4-2.4 4-5.3s-1.8-5.3-4-5.3-4 2.4-4 5.3c0 3 1.8 5.3 4 5.3z"/><path class="st3" d="M28.5 80.8H20c-.1.5-.1 1-.1 1.6 0 .9.1 1.6.2 2.3h9.6c-.8-1-1.2-2.3-1.2-3.6v-.3z"/><path class="st3" d="M21.5 90.7c-1.2 0-2.4-1.8-3.1-4.6-.1-.4-.2-.8-.2-1.2 0-.3-.1-.5-.1-.8V80.4c0-.1 0-.3.1-.4 0-.1 0-.3.1-.4.5-3.2 2-5.4 3.2-5.4 1.3 0 2.7 2.2 3.2 5.4h1.5c-1-5.5-4.8-9.6-9.3-9.6-5.3 0-9.5 5.6-9.5 12.5C7.5 89.3 11.7 95 17 95c4.3 0 7.9-3.7 9.1-8.8h-1.5c-.7 2.7-1.9 4.5-3.1 4.5zM62.1 82.4c0-.6 0-1.1-.1-1.6h-8.5v.4c0 1.3-.4 2.6-1.2 3.6H62c.1-.7.1-1.5.1-2.4z"/><path class="st3" d="M65.1 69.9c-4.5 0-8.3 4.1-9.3 9.6h1.5c.5-3.2 2-5.4 3.2-5.4 1.3 0 2.7 2.2 3.2 5.4 0 .1 0 .3.1.4 0 .1 0 .3.1.4V84c0 .3-.1.5-.1.8-.1.4-.1.8-.2 1.2-.6 2.8-1.9 4.6-3.1 4.6-1.2 0-2.4-1.8-3.1-4.6H56c1.2 5.1 4.8 8.8 9.1 8.8 5.3 0 9.5-5.6 9.5-12.5 0-6.8-4.3-12.4-9.5-12.4zM30.7 73.4v7.8c0 1.2.5 2.4 1.4 3.2l6.2 5.3c1.6 1.3 3.9 1.3 5.4 0l6.2-5.3c.9-.8 1.4-1.9 1.4-3.2v-7.8c-3.9 1.2-7.7 2-10.4 2.1-2.6-.2-6.4-.9-10.2-2.1zM16 64.1c4.8 4.7 18.3 9 25 9.3 6.8-.2 20.2-4.6 25-9.3 3-3 4.8-10.1 4.9-16.7.1-2.9-.2-5.7-.8-8-1.7-6.6-9.1-18.1-26.7-18.7l2.9-5.2c.3-.5.3-1.1 0-1.6s-.8-.8-1.3-.9l-8.3-.8c1.1-1.7 2.4-3.8 2.9-4.3.6-.5.8-1.4.3-2.2-.5-.8-1.5-1-2.3-.5-.2.1-.7.4-3.1 4-2.6 3.8-2.3 4.1-2.1 4.8.2.7.8 1.3 1.5 1.3l8.2.7-2.5 4.5c-18.3.1-26 12-27.8 18.7-.6 2.3-.8 5.1-.8 8 .3 6.8 2 14 5 16.9zm1-19.9c.1-4.7 3.8-8.5 8.5-8.8l14.2-.8h1l14.2.8c4.7.3 8.3 4.1 8.4 8.8l.2 9.5c.1 2.3-1.8 4.2-4.1 4.2h-10c-.7 0-1.5-.2-2-.7-1.1-.8-2.4-1.2-3.7-1.2h-8c-.7 0-1.5.2-2.1.7-.5.4-1.1.7-1.8.9-.6.2-1.3.3-2 .3h-9c-2.3 0-4.1-1.9-4.1-4.2l.3-9.5z"/><path class="st0" d="M49.8 51.9c2.2 0 4-2.4 4-5.3s-1.8-5.3-4-5.3-4 2.4-4 5.3c-.1 3 1.7 5.3 4 5.3z"/></svg>